<svg width="108" height="79" viewBox="0 0 108 79" fill="none" xmlns="http://www.w3.org/2000/svg">
<path d="M85.0846 30.8335V8.77785C85.0846 3.93683 81.0679 0 76.1283 0H8.95614C4.01668 0 0 3.93663 0 8.77785V52.6667C0 57.5077 4.01668 61.4445 8.95635 61.4445H59.1707C62.1044 71.5608 71.5956 79 82.8457 79C87.1751 79 91.4324 77.8835 95.1628 75.7684C96.2321 75.1619 96.5994 73.8204 95.9783 72.7703C95.3595 71.7203 93.9885 71.358 92.9192 71.9711C89.8711 73.6984 86.3878 74.6112 82.8455 74.6112C71.7331 74.6112 62.6938 65.7519 62.6938 54.8612C62.6938 43.9705 71.7333 35.1112 82.8455 35.1112C93.9576 35.1112 102.997 43.9705 102.997 54.8612V57.0557C102.997 59.4751 100.988 61.4445 98.5191 61.4445C96.0505 61.4445 94.041 59.4751 94.041 57.0557V48.2778C94.0412 47.9896 93.9834 47.7042 93.8709 47.4378C93.7585 47.1715 93.5935 46.9295 93.3856 46.7257C93.1776 46.5219 92.9307 46.3602 92.659 46.25C92.3872 46.1398 92.0959 46.0831 91.8018 46.0833C91.1996 46.0833 90.6584 46.3222 90.2565 46.7005C88.2774 44.9722 85.6984 43.8888 82.8455 43.8888C76.6728 43.8888 71.6502 48.8113 71.6502 54.861C71.6502 60.9106 76.6728 65.8333 82.8457 65.8333C86.1825 65.8333 89.1494 64.3663 91.2023 62.0887C92.8243 64.3469 95.493 65.8333 98.5193 65.8333C103.459 65.8333 107.475 61.8967 107.475 57.0555V54.861C107.475 42.2915 97.6187 31.9473 85.0846 30.8335ZM8.95635 4.38882H76.1285C76.2217 4.38882 76.2998 4.43552 76.3917 4.44108L44.3836 30.1908C43.2444 30.8937 41.5934 30.7479 40.8522 30.3023L8.69585 4.44066C8.78674 4.43532 8.86399 4.38882 8.95635 4.38882ZM80.6066 30.8335C68.0724 31.9473 58.2158 42.2915 58.2158 54.8612C58.2158 55.6018 58.2622 56.3317 58.3291 57.0557H8.95635C6.48778 57.0557 4.47828 55.0863 4.47828 52.6669V8.77785C4.47828 8.15634 4.61829 7.56939 4.85717 7.03326L38.2088 33.8383C39.5119 34.6719 41.0098 35.1114 42.5426 35.1114C44.0164 35.1114 45.4573 34.7042 46.7256 33.9328C46.8536 33.8655 46.9745 33.7858 47.0864 33.6949L80.2275 7.03285C80.4665 7.56939 80.6068 8.15634 80.6068 8.77805V30.8335H80.6066ZM82.8457 61.4445C79.1416 61.4445 76.1285 58.4915 76.1285 54.8612C76.1285 51.2309 79.1416 48.2778 82.8457 48.2778C86.5498 48.2778 89.5629 51.2309 89.5629 54.8612C89.5629 58.4915 86.5498 61.4445 82.8457 61.4445Z" fill="#99521C"/>
</svg>
