<svg width="104" height="63" viewBox="0 0 104 63" fill="none" xmlns="http://www.w3.org/2000/svg">
<path d="M68.0406 27.3693L45.2527 17.463C43.9424 16.8934 42.3938 16.9146 41.1095 17.5192C39.8244 18.1244 39.0579 19.1936 39.0579 20.3803V40.023C39.0579 41.2041 39.8198 42.2714 41.0962 42.8772C41.7627 43.1935 42.5016 43.3524 43.2422 43.3524C43.9351 43.3516 44.6169 43.2139 45.2261 42.9517L68.0146 33.216C68.6784 32.9325 69.2335 32.5119 69.6214 31.9985C70.0092 31.4851 70.2153 30.898 70.218 30.2992C70.221 29.7003 70.0203 29.1118 69.637 28.5961C69.2537 28.0803 68.7021 27.6564 68.0406 27.3693ZM45.1024 37.5519V22.8714L62.1338 30.2754L45.1024 37.5519Z" fill="#99521C"/>
<path d="M102.978 14.65L102.974 14.6125C102.886 13.9529 102.017 8.08568 98.4268 5.10133C94.2772 1.59117 89.5725 1.16477 87.3101 0.96037C87.1392 0.94538 86.9684 0.929107 86.7978 0.911551L86.6175 0.896665C72.9816 0.108842 52.3879 0.00128049 52.1818 0.000640247L52.1637 0L52.1456 0.000640247C51.9395 0.00128049 31.3458 0.108842 17.5868 0.896665L17.4051 0.911551C17.2586 0.927237 17.0972 0.941643 16.9218 0.957969C14.6854 1.16285 10.0313 1.59005 5.86995 5.22697C2.4506 8.17947 1.46224 13.921 1.36071 14.5663L1.34902 14.65C1.3182 14.9245 0.590332 21.459 0.590332 28.019V34.1512C0.590332 40.7114 1.3182 47.2457 1.34902 47.5209L1.35446 47.562C1.4419 48.2111 2.31059 53.9709 5.88406 56.9563C9.7859 60.3488 14.7192 60.7978 17.3728 61.0392C17.7923 61.0773 18.1535 61.1098 18.3997 61.1442L18.6382 61.1704C26.5116 61.7657 51.1973 62.0588 52.2439 62.0708L52.2755 62.0714L52.3069 62.0708C52.513 62.0701 73.1059 61.9626 86.7422 61.1748L86.9223 61.1599C87.0948 61.1416 87.2884 61.1255 87.5007 61.1079C89.7248 60.9203 94.3535 60.5308 98.4574 56.9431C101.877 53.9902 102.866 48.2485 102.967 47.6039L102.978 47.5202C103.009 47.2451 103.738 40.7112 103.738 34.1512V28.019C103.737 21.4588 103.009 14.9251 102.978 14.65ZM97.6925 34.1512C97.6925 40.223 97.0253 46.476 96.9622 47.05C96.7058 48.6314 95.6628 52.2638 93.9969 53.7026C91.4284 55.9478 88.7898 56.1704 86.8633 56.3324C86.6485 56.3499 86.434 56.3691 86.2196 56.3899C73.0304 57.1476 53.2143 57.2638 52.3015 57.2683C51.2777 57.2565 26.953 56.9607 19.3197 56.3974C18.9285 56.3467 18.5058 56.3079 18.0606 56.2679C15.8013 56.0622 12.7085 55.7808 10.3304 53.7026L10.2744 53.6551C8.63759 52.3001 7.62486 48.9032 7.36739 47.0687C7.31945 46.6349 6.63489 40.308 6.63489 34.1512V28.019C6.63489 21.9542 7.30071 15.708 7.36518 15.1221C7.6714 13.2595 8.73369 9.84699 10.3304 8.46758C12.9776 6.15421 15.769 5.89795 17.6152 5.72845C17.7915 5.71212 17.9559 5.69723 18.1077 5.68155C31.489 4.91997 51.4475 4.80681 52.1637 4.80249C52.8799 4.80617 72.8313 4.91997 86.0937 5.68155C86.2565 5.69787 86.4344 5.71404 86.6256 5.73165C88.5245 5.90355 91.3945 6.16365 94.0286 8.39571L94.0527 8.41636C95.6898 9.77128 96.7025 13.2277 96.9598 15.0989C97.0055 15.5085 97.6925 21.8491 97.6925 28.019V34.1512Z" fill="#99521C"/>
</svg>
