<svg width="51" height="57" viewBox="0 0 51 57" fill="none" xmlns="http://www.w3.org/2000/svg">
<g clip-path="url(#clip0_105_4)">
<path d="M48.1037 29.6761C50.0095 14.3157 41.0575 1.10665 28.1088 0.172854C15.16 -0.760947 3.11802 10.9341 1.21218 26.2945C-0.69366 41.6549 8.25838 54.8639 21.2071 55.7977C34.1558 56.7315 46.1979 45.0365 48.1037 29.6761Z" fill="#4B2406"/>
<path d="M40.3 5.17955C44.1409 10.5449 46.0261 17.823 45.0223 25.6594C43.0618 40.9615 30.8304 52.5942 17.7027 51.6418C13.9008 51.366 10.442 50.0633 7.49215 47.9823C11.1512 53.0938 16.5853 56.4691 22.9901 56.9338C36.1179 57.8862 48.3492 46.2534 50.3097 30.9513C51.7024 20.0807 47.5358 10.2843 40.3 5.17955Z" fill="#301E14"/>
<path d="M24.1723 47.4271C23.7664 44.2707 23.4846 40.9933 22.8434 37.8946C22.2462 34.8802 21.4125 31.9841 20.3186 29.1212C17.6894 22.2774 18.0986 14.3368 22.9601 8.12964C23.2709 7.74996 23.905 7.63981 24.3763 7.88354C25.3363 8.6213 25.0446 11.6161 25.4057 12.8253C26.0555 17.6186 27.1791 22.3383 29.0186 26.8428C30.4063 30.3007 31.0181 33.9985 30.6666 37.6287C30.3037 41.2327 29.1019 44.8115 26.711 47.8959C26.3003 48.4132 25.447 48.5715 24.8049 48.2497C24.43 48.0616 24.2166 47.7575 24.1723 47.4271Z" fill="#74330B"/>
</g>
<defs>
<clipPath id="clip0_105_4">
<rect width="51" height="57" fill="white"/>
</clipPath>
</defs>
</svg>
