<svg width="57" height="66" viewBox="0 0 57 66" fill="none" xmlns="http://www.w3.org/2000/svg">
<path d="M33.2631 19.2946C33.2903 19.5298 33.315 19.7645 33.3364 20.0008C33.7767 24.7842 33.0683 29.5709 31.2317 34.2273C27.8875 42.7072 28.8355 51.9188 33.8317 59.5007C34.4635 60.4587 33.9855 61.6889 32.7636 62.2479C31.5418 62.8071 30.0391 62.483 29.408 61.5244C26.6059 57.2735 24.9289 52.6432 24.4213 47.7638C23.9128 42.8665 24.6097 37.9626 26.4922 33.1885C29.8024 24.7949 28.9932 15.9976 24.2144 8.41625L22.6042 5.86196C21.9942 4.89418 22.499 3.66978 23.7314 3.1278C24.9636 2.58531 26.4577 2.93093 27.0677 3.89871L28.6779 6.453C31.1986 10.4516 32.7393 14.7686 33.2631 19.2946Z" fill="#4B2406"/>
<path d="M53.0445 29.8248C53.9485 37.6368 52.3406 45.2938 48.5165 51.3856C44.5057 57.7745 38.5332 61.7284 31.6993 62.5192C24.8653 63.31 18.1476 60.8245 12.7837 55.5206C7.66948 50.4633 4.35538 43.3757 3.45138 35.5637C2.54737 27.7516 4.15524 20.0946 7.97931 14.0029C11.9901 7.61394 17.9627 3.66004 24.7966 2.86923C31.6305 2.07841 38.3482 4.56393 43.7121 9.86787C48.8264 14.9252 52.1405 22.0128 53.0445 29.8248ZM8.41069 34.9898C9.22756 42.0489 12.1735 48.4045 16.7063 52.8875C20.99 57.1228 26.1513 59.1313 31.2391 58.5426C36.3268 57.9538 40.8932 54.8196 44.0963 49.718C47.4853 44.3183 48.902 37.4577 48.0852 30.3987C47.2683 23.3397 44.3223 16.9839 39.7895 12.5009C35.5058 8.26562 30.3445 6.25714 25.2568 6.84589C20.169 7.43465 15.6026 10.5688 12.3996 15.6705C9.01057 21.0702 7.59382 27.9308 8.41069 34.9898Z" fill="#301E14"/>
</svg>
